<mxfile host="app.diagrams.net" modified="2021-01-27T22:08:06.273Z" agent="5.0 (Windows NT 10.0; WOW64) AppleWebKit/537.36 (KHTML, like Gecko) Chrome/70.0.3538.25 Safari/537.36 Core/1.70.3861.400 QQBrowser/10.7.4313.400" etag="bVPiVnBVcSn5xGqgmzuE" version="14.2.7" type="github">
  <diagram id="K6_6axnaGtwmO-eT-3c7" name="Page-1">
    <mxGraphModel dx="827" dy="486" grid="1" gridSize="10" guides="1" tooltips="1" connect="1" arrows="1" fold="1" page="1" pageScale="1" pageWidth="827" pageHeight="1169" math="0" shadow="0">
      <root>
        <mxCell id="0" />
        <mxCell id="1" parent="0" />
      </root>
    </mxGraphModel>
  </diagram>
</mxfile>
